<svg viewBox="0 0 204 200" fill="none" xmlns="http://www.w3.org/2000/svg">
  <mask id="a" fill="#fff">
    <path fill-rule="evenodd" clip-rule="evenodd" d="M40 0v200h124c22.091 0 40-44.772 40-100S186.091 0 164 0H40Z"/>
  </mask>
  <path fill-rule="evenodd" clip-rule="evenodd" d="M40 0v200h124c22.091 0 40-44.772 40-100S186.091 0 164 0H40Z" fill="#D9D9D9"/>
  <path d="M40 200h-8v8h8v-8ZM40 0v-8h-8v8h8Zm8 200V0H32v200h16Zm116-8H40v16h124v-16Zm32-92c0 26.857-4.369 50.803-11.144 67.74-3.396 8.49-7.24 14.824-11.099 18.905-3.843 4.063-7.143 5.355-9.757 5.355v16c8.431 0 15.654-4.305 21.382-10.362 5.712-6.04 10.488-14.35 14.33-23.956C207.415 154.425 212 128.371 212 100h-16ZM164 8c2.614 0 5.914 1.292 9.757 5.355 3.859 4.081 7.703 10.415 11.099 18.905C191.631 49.197 196 73.143 196 100h16c0-28.371-4.585-54.425-12.288-73.682-3.842-9.606-8.618-17.916-14.33-23.956C179.654-3.695 172.431-8 164-8V8ZM40 8h124V-8H40V8Z" fill="#000" mask="url(#a)"/>
  <path d="M44 196V4h70c4.069 0 8.349 2.045 12.664 6.607 4.322 4.57 8.399 11.399 11.906 20.168C145.577 48.29 150 72.765 150 100c0 27.236-4.423 51.709-11.43 69.225-3.507 8.769-7.584 15.598-11.906 20.168C122.349 193.955 118.069 196 114 196H44Z" fill="#EBB7B7" stroke="#000" stroke-width="8"/>
  <path d="M40 4c4.069 0 8.35 2.045 12.664 6.607 4.322 4.57 8.399 11.399 11.906 20.168C71.577 48.29 76 72.765 76 100c0 27.236-4.423 51.709-11.43 69.225-3.507 8.769-7.584 15.598-11.906 20.168C48.349 193.955 44.069 196 40 196c-4.069 0-8.35-2.045-12.664-6.607-4.322-4.57-8.399-11.399-11.906-20.168C8.423 151.709 4 127.236 4 100c0-27.236 4.423-51.709 11.43-69.225 3.507-8.77 7.584-15.598 11.906-20.168C31.651 6.045 35.931 4 40 4Z" fill="#EBB7B7" stroke="#000" stroke-width="8"/>
</svg>