<svg width="300" height="355" viewBox="0 0 300 355" fill="none" xmlns="http://www.w3.org/2000/svg">
<rect x="2.5" y="127.5" width="295" height="67" rx="14.5" fill="white" stroke="#898989" stroke-width="5"/>
<rect x="110.5" y="224.5" width="80" height="128" fill="white" stroke="#898989" stroke-width="5"/>
<rect x="27.5" y="72.5" width="246" height="178" rx="20.5" fill="white" stroke="#898989" stroke-width="5"/>
<rect x="50.5" y="89.5" width="199" height="144" rx="20.5" fill="#1B1B1B" stroke="#898989" stroke-width="5"/>
<rect x="111.067" y="55.9054" width="77.6" height="11.6351" fill="#FF1E1E"/>
<path fill-rule="evenodd" clip-rule="evenodd" d="M209.397 19.7406C225.15 32.3803 234 52.3613 234 70.2365H179.866C179.79 58.2336 170.036 48.527 158.015 48.527H141.718C129.697 48.527 119.943 58.2336 119.867 70.2365L66 70.2365C66 52.3612 74.85 32.3803 90.603 19.7406C106.356 7.1009 127.722 0 150 0C172.278 0 193.644 7.10091 209.397 19.7406Z" fill="black"/>
<circle cx="107.5" cy="148.5" r="12.5" fill="#82FFFF"/>
<circle cx="192.5" cy="148.5" r="12.5" fill="#82FFFF"/>
<path d="M120 148.5C120 145.185 118.683 142.005 116.339 139.661C113.995 137.317 110.815 136 107.5 136C104.185 136 101.005 137.317 98.6612 139.661C96.317 142.005 95 145.185 95 148.5L107.5 148.5H120Z" fill="#82FFFF"/>
<path d="M205 148.5C205 145.185 203.683 142.005 201.339 139.661C198.995 137.317 195.815 136 192.5 136C189.185 136 186.005 137.317 183.661 139.661C181.317 142.005 180 145.185 180 148.5L192.5 148.5H205Z" fill="#82FFFF"/>
<path d="M188 202C188 192.983 184.418 184.335 178.042 177.958C171.665 171.582 163.017 168 154 168C144.983 168 136.335 171.582 129.958 177.958C123.582 184.335 120 192.983 120 202L154 202H188Z" fill="#82FFFF"/>
<path d="M120 170C120 179.017 123.582 187.665 129.958 194.042C136.335 200.418 144.983 204 154 204C163.017 204 171.665 200.418 178.042 194.042C184.418 187.665 188 179.017 188 170L154 170L120 170Z" fill="#82FFFF"/>
</svg>
